<?xml version="1.0" encoding="UTF-8"?>
<svg id="Capa_2" data-name="Capa 2" xmlns="http://www.w3.org/2000/svg" viewBox="0 0 164.09 54.4">
  <defs>
    <style>
      .cls-1 {
        fill: #fff;
      }
    </style>
  </defs>
  <g id="Capa_1-2" data-name="Capa 1">
    <g>
      <g>
        <path class="cls-1" d="M64.59,39.83l12.59-28.34h6.48l12.71,28.34h-6.88l-10.4-25.02h2.63l-10.4,25.02h-6.72Zm6.36-6.07l1.66-4.98h14.65l1.7,4.98h-18.01Z"/>
        <path class="cls-1" d="M99.73,39.83V11.49h5.42l12.06,20h-2.87l11.82-20h5.47v28.34h-6.11l-.08-18.91h1.21l-9.55,15.87h-2.91l-9.68-15.87h1.34v18.91h-6.11Z"/>
        <path class="cls-1" d="M152.36,40.31c-2.19,0-4.22-.36-6.09-1.07-1.88-.71-3.5-1.73-4.88-3.06-1.38-1.32-2.45-2.87-3.22-4.66-.77-1.78-1.15-3.74-1.15-5.87s.38-4.09,1.15-5.87c.77-1.78,1.85-3.33,3.24-4.66,1.39-1.32,3.02-2.34,4.9-3.06,1.88-.71,3.91-1.07,6.09-1.07,2.46,0,4.68,.42,6.68,1.28,2,.85,3.67,2.1,5.02,3.74l-4.25,3.89c-.95-1.11-2.02-1.94-3.22-2.51-1.2-.57-2.5-.85-3.91-.85-1.32,0-2.54,.22-3.64,.67-1.11,.45-2.07,1.07-2.87,1.88-.81,.81-1.44,1.77-1.88,2.87-.45,1.11-.67,2.33-.67,3.68s.22,2.58,.67,3.68c.45,1.11,1.07,2.07,1.88,2.87,.81,.81,1.77,1.44,2.87,1.88,1.11,.45,2.32,.67,3.64,.67,1.4,0,2.71-.29,3.91-.87,1.2-.58,2.27-1.42,3.22-2.53l4.25,3.89c-1.35,1.65-3.02,2.9-5.02,3.76-2,.86-4.24,1.3-6.72,1.3Z"/>
      </g>
      <path class="cls-1" d="M38.74,0c-.23,.09-.52,.21-.82,.33C22.48,3.33,11.67,15.59,12.66,29.6c.55,7.74,5.72,13.55,13.09,14.71,7.86,1.23,15.13-2.59,17.09-10.45,.12-.5,.23-1.03,.33-1.58V13.28h-5.06c0,5.67-.1,9.64-.24,12.41,.12,1.4,.16,2.79-.05,4.14-1.11,7.3-7.57,10.47-13.93,7.24-4.93-2.5-6.67-7.9-4.66-14.47,2.43-7.97,11.58-15.32,20.16-17.3h10.26V49.08H5.38V5.31l12.49,1.64,3.16-4.43C18.14,.72,11.72,.15,6.76,0H0V54.4H55.03V0h-16.29Z"/>
    </g>
  </g>
</svg>