<?xml version="1.0" encoding="UTF-8"?>
<svg id="Capa_2" data-name="Capa 2" xmlns="http://www.w3.org/2000/svg" viewBox="0 0 420.74 95.29">
  <defs>
    <style>
      .cls-1 {
        fill: #fff;
      }
    </style>
  </defs>
  <g id="Capa_1-2" data-name="Capa 1">
    <g>
      <path class="cls-1" d="M127.68,41.52V.29h10.98l13.9,30.59L166.26,.29h10.51V41.52h-9.05V17.92l-10.45,23.6h-9.64l-10.57-23.48v23.48h-9.39Zm63.86,0h-10.65L199.18,.29h13.11l18.42,41.24h-10.51l-3.62-8.25-21.53,.06-3.51,8.18Zm21.65-15.96l-7.48-17.03-7.31,17.03h14.79Zm21.85,15.96V.29h39.4V8.53h-29.88v8.25h25.62v8.18h-25.62v8.32h29.88v8.24h-39.4Z"/>
      <path class="cls-1" d="M282.08,41.52V.29h33.73s2.17-.25,4.47,1.99c2.06,2,1.72,4.93,1.72,4.93v13.86s.41,2.54-2.02,4.72c-2.34,2.1-5.76,1.64-5.76,1.64l7.85,14.1h-10.31l-7.79-14.1h-12.23v14.1h-9.65Zm9.65-22.35h20.69V8.53h-20.69v10.65Zm47.61,22.35h-3.27s-2.87-.05-4.49-1.77c-1.88-2-1.82-4.28-1.82-4.28v-5.39h9.58v3.2h20.35v-8.32h-23.36s-2.88,.29-4.65-1.53c-1.97-2.02-1.76-4.45-1.76-4.45V6.61s-.04-2.08,1.36-3.93c2.01-2.66,5.12-2.39,5.12-2.39l26.69,.02s2.18-.15,4.31,1.91c2.34,2.25,1.8,4.65,1.8,4.65v4.92h-9.51v-3.26h-20.35v8.25h23.28s2.73-.2,4.65,2c1.93,2.2,1.93,4.65,1.93,4.65v11.64s.31,2.28-1.52,4.36c-2.07,2.36-4.87,2.09-4.87,2.09h-23.48"/>
      <path class="cls-1" d="M378.31,41.51V.26h9.77V16.76L406.7,.26h13.25l-22.21,19.16,23.01,22.09h-13.7l-18.96-18.77v18.77h-9.77Z"/>
      <path class="cls-1" d="M90.42,10.92c-.02-5.53-4.28-10.91-10.89-10.88h0L10.93,0C5.17-.03,0,4.79,0,10.92V84.33c0,5.7,4.51,10.95,10.89,10.96H79.48c6.23-.02,10.93-4.97,10.96-10.92l-.02-73.44Zm-4.79,46.39l-28.19,.03,6.45,28.01-.18,.16-18.43-22.53h-.24l-18.24,22.56c-.1,.08-.16,.08-.26,0l6.36-28.11-28.13-.07c-.1-.08-.1-.16-.1-.24l25.58-12.31,.18-.18L12.79,22.7c-.05-.13,.05-.18,.13-.29l25.43,11.99,6.66-27.28h.18l6.61,27.37h0s25.41-11.99,25.41-11.99c.1-.05,.16,.1,.24,.13l-17.57,21.97,25.67,12.4c.13,.08,.26,.18,.08,.31Z"/>
      <g id="iEqNbG.tif">
        <g>
          <path class="cls-1" d="M196.77,84.45c.07-1.43,.14-2.35,.15-3.27,.01-6.23,0-12.45,.01-18.68,0-1.52-.43-3.3,2.16-3.27,2.65,.04,2.01,1.95,2.02,3.38,.05,8.16,.07,16.31-.03,24.47-.01,1.22-.45,3.26-1.14,3.48-1.86,.58-3.85,.49-5.38-1.51-4.63-6.05-9.42-11.98-14.17-17.94-1.45-1.83-2.97-3.61-5.01-6.07-.1,1.7-.2,2.59-.2,3.48-.01,6.58-.02,13.16,0,19.73,0,1.45-.09,2.55-2.03,2.58-2.03,.03-2.28-1.04-2.27-2.66,.03-8.33-.04-16.66,.07-25,.02-1.29,.5-3.44,1.27-3.69,1.94-.64,4.03-.46,5.6,1.62,3.79,5.04,7.78,9.93,11.69,14.88,1.85,2.34,3.69,4.68,5.57,6.99,.35,.43,.84,.74,1.69,1.48Z"/>
          <path class="cls-1" d="M208.47,75.21c0-4.47,.07-8.94-.03-13.41-.04-1.96,.67-2.6,2.6-2.58,6.4,.08,12.8,.06,19.2,.01,1.56-.01,2.5,.35,2.5,2.16,0,1.85-.99,2.12-2.53,2.11-4.91-.05-9.82,.04-14.73-.05-1.95-.04-2.61,.65-2.57,2.59,.19,8.57-1.03,6.87,6.81,7.04,2.72,.06,5.44,.04,8.15,0,1.44-.02,2.06,.58,2.05,2.04-.01,1.47-.67,2-2.1,1.99-4.03-.04-8.07,.1-12.1-.05-2.25-.09-2.97,.77-2.81,2.89,.12,1.57,.09,3.16,0,4.73-.1,1.84,.76,2.47,2.52,2.45,4.91-.06,9.82,0,14.73-.03,1.5-.01,2.55,.2,2.56,2.08,.01,1.82-.88,2.15-2.46,2.14-6.49-.06-12.98-.09-19.46,.01-1.9,.03-2.41-.69-2.38-2.45,.08-4.56,.03-9.11,.03-13.67Z"/>
          <path class="cls-1" d="M126.95,75.22c0-4.3,0-8.59,0-12.89,0-1.49-.26-3.06,2.1-3.1,2.31-.04,2.21,1.42,2.2,2.98-.01,7.19,.12,14.38-.07,21.56-.07,2.76,.93,3.47,3.48,3.38,4.64-.15,9.29-.04,13.94-.04,1.38,0,2.61-.02,2.65,1.98,.04,2.05-1.08,2.22-2.67,2.21-6.4-.04-12.8-.07-19.2,.02-1.85,.03-2.48-.63-2.45-2.43,.07-4.56,.02-9.12,.02-13.68Z"/>
          <path class="cls-1" d="M157.07,74.9c0-4.37,.06-8.75-.03-13.12-.03-1.76,.52-2.55,2.38-2.56,1.93-.01,2.33,.92,2.32,2.61-.05,8.83-.06,17.67,0,26.5,.01,1.78-.52,2.5-2.38,2.51-1.92,0-2.36-.83-2.33-2.56,.08-4.46,.03-8.92,.03-13.38Z"/>
        </g>
      </g>
    </g>
  </g>
</svg>