<?xml version="1.0" encoding="UTF-8"?>
<svg id="Capa_2" data-name="Capa 2" xmlns="http://www.w3.org/2000/svg" viewBox="0 0 114.69 109.6">
  <defs>
    <style>
      .cls-1 {
        fill: #0265a0;
      }
    </style>
  </defs>
  <g id="Capa_1-2" data-name="Capa 1">
    <g id="_6DeuEA.tif" data-name="6DeuEA.tif">
      <g>
        <path class="cls-1" d="M54.03,76.42c3.31,.21,5.41,2.64,8.19,4.2v-21h28.91c1.03-7.99,2.04-15.85,3.07-23.89-2.24,.48-3-1.07-3.95-2.46-5.05-7.34-10.13-14.66-15.2-21.99-.2-.29-.42-.57-.79-1.07-.04,.58-.07,.91-.07,1.24,0,3.21,0,6.42,0,9.64,0,1.77-.84,2.63-2.61,2.77-2.63,.2-4.57,2.29-4.52,4.88,.05,2.49,2.16,4.6,4.66,4.64,2.57,.04,4.66-1.92,4.86-4.55,.12-1.64,1.06-2.62,2.46-2.58,1.43,.04,2.37,1.17,2.28,2.83-.04,.71-.16,1.44-.35,2.13-1.23,4.37-5.35,7.22-9.92,6.91-4.34-.3-7.96-3.71-8.68-8.2-.68-4.22,1.9-8.64,6.04-10.17,.85-.31,1.06-.71,1.05-1.56-.04-5.2-.02-10.39-.02-15.59,0-1.73,.84-2.58,2.58-2.58,10.14,0,20.28,.01,30.42-.02,1.13,0,1.88,.42,2.56,1.29,2.92,3.71,5.87,7.41,8.85,11.08,.58,.71,.87,1.43,.86,2.35-.03,5.81-.01,11.62-.01,17.43,0,2.81-.41,3.29-3.3,3.73,.11,.94,.21,1.89,.33,2.84,.85,6.62,1.72,13.23,2.55,19.85,.21,1.7,.4,3.41,.4,5.11,.03,14.8,.02,29.59,.02,44.39v1.46c-.46,.02-.81,.06-1.16,.06-16.71,0-33.42,.03-50.13-.03-1.88,0-3.61-.88-5.16-1.96-.74-.51-1.45-1.08-2.19-1.59-2.38-1.65-5.35-1.63-7.68,.09-2.01,1.49-3.98,2.98-6.57,3.34-3.06,.43-5.89-.09-8.43-1.9-.71-.5-1.38-1.04-2.1-1.53-2.45-1.68-5.34-1.63-7.77,.16-1.92,1.42-3.81,2.84-6.27,3.23-3.22,.5-6.17-.05-8.81-2-1.68-1.24-3.26-2.68-5.61-2.57v-4.71c1.74-.13,3.37,.25,4.86,1.06,1.2,.65,2.31,1.47,3.42,2.27,2.56,1.85,5.47,1.89,8.04,.01,1.95-1.44,3.88-2.88,6.38-3.25,3.02-.44,5.82,.03,8.35,1.78,.68,.47,1.34,.98,2.01,1.47,2.5,1.83,5.41,1.82,7.96,.07,1.39-.95,2.76-2.04,4.3-2.66,3.77-1.51,7.42-1.06,10.78,1.3,1.04,.73,2.08,1.47,3.32,2.34v-7.07c-2.33-.47-4.16-1.88-6.03-3.25-2.49-1.82-5.45-1.77-7.94,.08-1.95,1.45-3.88,2.87-6.39,3.24-3.1,.45-5.96-.07-8.53-1.91-.67-.48-1.33-1-2.01-1.47-2.48-1.73-5.38-1.68-7.86,.15-1.92,1.42-3.81,2.83-6.28,3.21-3.18,.49-6.07-.1-8.73-1.95-1.29-.9-2.67-1.67-4.06-2.41-.45-.24-1.04-.22-1.61-.32v-4.61c2.17-.09,4.1,.49,5.86,1.61,.85,.54,1.65,1.17,2.46,1.76,2.5,1.82,5.45,1.86,7.95,.03,1.98-1.46,3.93-2.93,6.48-3.29,2.98-.43,5.75,.04,8.26,1.75,.66,.45,1.28,.93,1.92,1.4,2.67,1.97,5.54,2.02,8.21,.07,1.96-1.43,3.89-2.87,6.4-3.22,3.1-.44,5.96,.08,8.53,1.93,1.04,.75,2.09,1.48,3.44,2.44,0-1.67-.13-2.99,.03-4.28,.23-1.95-.18-3.15-2.36-3.69-1.25-.31-2.33-1.39-3.44-2.19-2.83-2.05-5.7-2.12-8.47,.03-2.55,1.98-5.26,3.39-8.6,3.23-2.22-.11-4.25-.73-6.06-2.03-.67-.48-1.33-1-2.01-1.47-2.49-1.75-5.42-1.73-7.86,.08-1.92,1.42-3.8,2.85-6.27,3.24-3.26,.52-6.23-.06-8.91-2.04-1.65-1.23-3.22-2.63-5.54-2.51v-4.67c.27-.06,.56-.12,.93-.2-.06-.37-.08-.73-.16-1.06-1.01-4.06-2.07-8.1-3.04-12.17-.68-2.85-1.13-2.22,1.64-3.25,2.35-.88,3.13-2.09,3.01-4.63-.25-5.18-.07-10.39-.07-15.59v-1.28H.42v-11.95c1.28,0,2.6-.11,3.91,.03,1.67,.17,2.93-.41,4.18-1.47,2.95-2.49,6.01-4.85,9.03-7.25,.34-.27,.72-.65,1.09-.66,1.22-.05,1.25-.86,1.39-1.75,.63-3.95,1.3-7.9,2-11.84,.06-.32,.44-.83,.68-.83,4.29-.05,8.58-.04,12.98-.04,.33,1.93,.66,3.81,.97,5.68,.43,2.56,.84,5.12,1.25,7.69,.09,.53,.23,.87,.9,.99,.6,.11,1.18,.51,1.68,.9,3.37,2.66,6.7,5.36,10.08,8.01,.39,.3,.96,.5,1.45,.51,1.76,.06,3.53,.02,5.39,.02v11.89h-4.6c-.03,.46-.06,.8-.06,1.15,0,5.99,.01,11.98-.02,17.97,0,.77,.23,1.17,.94,1.45,1.14,.45,2.22,1.04,3.36,1.49,.73,.29,.85,.69,.66,1.42-1.15,4.47-2.26,8.95-3.38,13.42-.1,.38-.15,.77-.26,1.41Zm55.84-11.99h-42.77v40.31h42.77v-40.31ZM31.46,53.87c-.08,.18-.11,.21-.11,.24-.02,7.39-.04,14.78-.02,22.17,0,.27,.28,.63,.54,.8,1.13,.76,2.35,1.4,3.45,2.2,3.27,2.36,5.83,2.36,9.09,.02,1.19-.86,2.52-1.51,3.74-2.33,.43-.29,.9-.73,1.02-1.2,1.01-3.79,1.94-7.61,2.91-11.41,.19-.76,.02-1.15-.73-1.49-4.11-1.82-8.19-3.7-12.29-5.55-2.51-1.14-5.03-2.28-7.61-3.45Zm-4.98,0c-.5,.21-.86,.36-1.21,.52-6.22,2.82-12.43,5.67-18.67,8.45-.91,.41-1.03,.86-.81,1.73,.91,3.56,1.78,7.13,2.63,10.7,.42,1.76,.87,3.34,2.63,4.44,2.66,1.67,5.51,1.86,8.05-.05,2.21-1.67,4.47-3.19,7.38-3.38v-22.4Zm21.4,2.1v-17.76H9.94v17.72c.43-.17,.76-.28,1.08-.42,5.64-2.56,11.28-5.1,16.9-7.69,.72-.33,1.3-.34,2.01-.01,3.95,1.83,7.91,3.63,11.87,5.43,1.99,.9,3.99,1.79,6.08,2.73Zm61.62,3.54c-.02-.35-.02-.64-.05-.91-.94-7.32-1.89-14.65-2.8-21.97-.09-.72-.38-.89-1.03-.88-1.91,.03-3.82,.03-5.73,0-.65-.01-.94,.16-1.03,.88-.74,5.93-1.52,11.86-2.29,17.79-.21,1.67-.4,3.34-.6,5.09h13.52Zm-13.85-28.61h14.18v-14.11h-14.18v14.11ZM5.16,33.26H52.65v-2.22H5.16v2.22Zm9.24-7.14h29.05c-2-1.6-3.79-3.05-5.6-4.46-.22-.17-.6-.2-.91-.2-5.33-.01-10.66-.01-16,0-.34,0-.75,.06-1,.25-1.79,1.39-3.55,2.82-5.54,4.41Zm18.83-9.5c-.51-3.06-.99-6.03-1.54-8.99-.04-.2-.52-.44-.8-.45-1.26-.05-2.52,.02-3.78-.04-.74-.03-1.02,.25-1.13,.94-.3,2.03-.65,4.05-.97,6.08-.13,.8-.24,1.6-.38,2.46h8.59Zm47-6.82c-.08,.08-.16,.16-.24,.24,3.53,5.1,7.07,10.21,10.75,15.53,.06-.41,.1-.54,.1-.67,0-2.85,.03-5.7-.03-8.55,0-.36-.37-.84-.7-1.04-1.64-.98-3.33-1.88-5-2.8-1.63-.9-3.26-1.81-4.88-2.72Zm1.21-4.99c.14,.2,.16,.27,.22,.3,3.45,1.93,6.9,3.88,10.38,5.76,.25,.14,.9-.08,1.12-.34,1.37-1.62,2.68-3.3,3.99-4.96,.16-.2,.26-.45,.44-.76h-16.14Zm25.83,7.04c-1.58-1.97-3-3.75-4.51-5.64-1.54,1.92-2.96,3.7-4.52,5.64h9.03Z"/>
        <path class="cls-1" d="M40.86,71.47c-1.27,.02-2.36-1.02-2.41-2.28-.05-1.31,1.02-2.44,2.33-2.46,1.31-.02,2.42,1.08,2.41,2.39,0,1.27-1.07,2.34-2.33,2.35Z"/>
        <path class="cls-1" d="M19.38,69.11c-.01,1.27-1.07,2.33-2.34,2.35-1.31,.02-2.41-1.08-2.4-2.39,.01-1.31,1.13-2.39,2.44-2.35,1.27,.04,2.31,1.12,2.3,2.39Z"/>
        <path class="cls-1" d="M21.67,45.24H12.34v-4.65h9.33v4.65Z"/>
        <path class="cls-1" d="M33.64,40.6v4.59h-9.42v-4.59h9.42Z"/>
        <path class="cls-1" d="M45.55,40.61v4.57h-9.4v-4.57h9.4Z"/>
      </g>
    </g>
  </g>
</svg>