<?xml version="1.0" encoding="UTF-8"?>
<svg id="Capa_2" data-name="Capa 2" xmlns="http://www.w3.org/2000/svg" viewBox="0 0 126.96 127">
  <defs>
    <style>
      .cls-1 {
        fill: #0265a0;
      }
    </style>
  </defs>
  <g id="Capa_1-2" data-name="Capa 1">
    <g id="jRUilj.tif">
      <g>
        <path class="cls-1" d="M114.3,71.15c0,.35,0,.6,0,.84,0,7.13,0,14.26,0,21.38,0,.77-.22,1.44-.58,2.13-.18,.34,.06,.9,.14,1.36,.13,.76,.39,1.5,.42,2.26,.07,1.63,.07,3.27,0,4.9-.07,2.08-.77,3.96-2.25,5.45-.9,.9-1.97,1.62-3.27,1.89-.47,.1-.95,.21-1.43,.25-.5,.04-.72,.21-.72,.76,.02,2.23-.01,4.46,.02,6.69,.03,2.75-1.11,4.92-3.27,6.53-1.09,.82-2.4,1.31-3.77,1.34-3.76,.06-7.53,.15-11.28-.02-2.79-.12-4.91-1.63-6.22-4.13-.5-.95-.8-1.97-.79-3.07,.02-2.42-.02-4.83,0-7.25,0-.53-.17-.66-.67-.66-11.45,.01-22.89,.01-34.34,0-.52,0-.66,.16-.66,.67,.01,2.58,.03,5.17-.03,7.75-.03,1.31-.59,2.48-1.34,3.54-.8,1.14-1.84,2.02-3.13,2.52-.79,.3-1.63,.63-2.45,.64-3.78,.07-7.57,.16-11.34-.01-2.67-.13-4.74-1.53-6.07-3.94-.69-1.25-.98-2.57-.96-3.98,.02-2.19-.01-4.38,.02-6.57,0-.55-.18-.77-.73-.81-3.15-.23-5.19-2.02-6.4-4.79-.38-.87-.48-1.9-.53-2.86-.08-1.57-.1-3.14,0-4.71,.07-1.02,.42-2.01,.62-3.02,.04-.21,.13-.52,.02-.65-.77-.92-.68-2.01-.68-3.08,0-6.84,0-13.68,0-20.52v-.83c-.25,0-.47,0-.69,0-3,0-5.99,.01-8.99-.01-.5,0-1.04-.08-1.48-.29-.96-.46-1.5-1.29-1.5-2.36-.01-6.71,0-13.43,0-20.14,0-1.09,.78-2.4,2.08-2.5,.46-.04,.92-.17,1.38-.17,2.81-.02,5.62,0,8.43,0,.22,0,.45,0,.76,0v-.82c0-13.12,0-26.24,0-39.36,0-1.83,.64-3.38,2.16-4.49,.78-.57,1.64-.92,2.61-.97,.25-.01,.5-.01,.74-.01C48.38,0,78.59,.01,108.8,0c1.78,0,3.24,.59,4.37,1.98,.72,.89,1.03,1.92,1.12,3.02,.06,.7,.01,1.4,.01,2.11,0,12.56,0,25.12,0,37.69,0,.26,0,.53,0,.87,.28,0,.5,0,.72,0,2.98,0,5.95-.03,8.93,.01,1.83,.03,3.02,.96,3.02,2.99,0,6.53,0,13.06,0,19.59,0,1.1-.36,2.05-1.43,2.52-.48,.22-1.04,.36-1.57,.37-2.97,.03-5.95,.02-8.93,.02-.22,0-.44,0-.74,0Zm-93.97-2.28v-.95c0-11.51,0-23.02,0-34.52,0-1.54,.2-3.03,.72-4.49,1.03-2.9,2.85-5.14,5.47-6.74,1.92-1.17,4-1.82,6.26-1.82,20.48,0,40.95,0,61.43,0,1.33,0,2.61,.27,3.87,.72,2.9,1.02,5.14,2.86,6.74,5.47,1.27,2.07,1.84,4.33,1.83,6.76-.02,11.53,0,23.06,0,34.59v.85c.19-.03,.34-.02,.45-.09,.51-.32,.99-.68,1.5-.99,.45-.27,.57-.64,.57-1.16-.01-20.17-.01-40.33-.01-60.5q0-.96-.94-.96c-29.79,0-59.59,0-89.38,0q-.98,0-.98,.98c0,20.08,0,40.17-.02,60.25,0,.75,.19,1.22,.84,1.56,.53,.28,1.03,.64,1.68,1.06Zm43.13,22.6c9.05,0,18.1,0,27.15,0,.73,0,.88-.24,.87-.84-.03-2.19,0-4.38-.02-6.57-.01-.93,.3-1.65,.97-2.3,1.47-1.43,2.89-2.93,4.34-4.37,.49-.48,.97-1.01,1.74-1.06,.77-.05,1.54-.14,2.31-.17,.8-.03,.8,0,.81-.83,0-13.51,0-27.03,0-40.54,0-1.35-.09-2.69-.44-4.01-.33-1.26-1.03-2.3-1.92-3.19-1.63-1.63-3.71-2.23-5.95-2.23-19.4-.02-38.81,0-58.21-.01-1.48,0-2.94,.04-4.38,.44-1.25,.35-2.28,1.04-3.17,1.93-1.67,1.67-2.22,3.8-2.22,6.08-.01,13.78,0,27.56,0,41.35,0,.19-.06,.4,.02,.55,.08,.18,.27,.41,.43,.43,.55,.05,1.11,.02,1.67,.02,.97,0,1.82,.32,2.5,1,1.57,1.56,3.13,3.13,4.69,4.69,.61,.62,.88,1.35,.87,2.23-.04,2.13,0,4.26-.02,6.38-.01,.93,.12,1.02,1,1.02,8.99-.01,17.98,0,26.97,0Zm.05,15.17c14.15,0,28.31,0,42.46,0,.31,0,.62,.01,.93-.02,1.06-.1,2.22-1.11,2.22-2.25,0-1.88,0-3.76-.01-5.64,0-.22-.06-.45-.15-.64-.55-1.23-1.59-1.61-2.84-1.61-28.23,0-56.45,0-84.68,0-.63,0-1.25,.13-1.88,.21-.8,.1-1.71,1.27-1.7,1.96,.01,1.94-.02,3.88,.02,5.82,.01,.72,.43,1.26,1.02,1.68,.58,.41,1.22,.49,1.9,.49,14.24,0,28.48,0,42.71,0Zm-22.85,5.22c-.17-.03-.27-.06-.37-.06-4.81,0-9.62,0-14.43,0-.41,0-.53,.18-.53,.57,.01,2.21-.04,4.42,.03,6.63,.03,1.06,.33,2.11,1.45,2.57,.57,.23,1.21,.37,1.82,.38,2.56,.04,5.12,.03,7.68,0,.71,0,1.43-.08,2.13-.17,1.29-.17,2.17-1.09,2.2-2.43,.05-2.47,.01-4.95,.01-7.48Zm45.72-.03c-.03,.1-.06,.16-.06,.22,0,2.42-.02,4.83,.01,7.24,0,.42,.2,.85,.38,1.25,.49,1.1,1.53,1.38,2.55,1.38,3.44,0,6.88-.07,10.32-.19,.46-.02,.99-.41,1.35-.77,.65-.65,.71-1.55,.71-2.43,0-1.98-.02-3.96,.02-5.94,.01-.63-.17-.81-.8-.81-4.6,.02-9.21,.01-13.81,.01-.22,0-.44,.02-.66,.04ZM12.62,65.99v-15.16c-2.29,0-4.54,0-6.78,0q-.82,0-.82,.83c0,4.27,0,8.55,0,12.82,0,1.77-.23,1.49,1.5,1.51,2.02,.01,4.04,0,6.1,0Zm101.7-.03c.22,.01,.38,.02,.54,.02,2.13,0,4.25-.01,6.38,.01,.54,0,.72-.17,.71-.71-.02-4.58-.02-9.17,0-13.75,0-.53-.14-.73-.7-.72-2.15,.03-4.3,.01-6.44,.01-.16,0-.31,.03-.49,.04v15.09ZM30.49,88.08c0-.89-.02-1.77,0-2.66,.01-.37-.1-.63-.37-.89-.87-.83-1.77-1.65-2.55-2.56-.52-.62-1.11-.74-1.81-.63-.16,.03-.41,.28-.41,.44-.02,3.03-.02,6.06-.02,9.09,0,.4,.18,.61,.6,.61,1.34,0,2.68,0,4.02,0,.4,0,.55-.15,.54-.55-.02-.95,0-1.9,0-2.85Zm71.13-1.79c0-1.46,0-2.93,0-4.39,0-.18-.06-.43-.18-.53-.29-.22-1.45-.02-1.72,.24-.98,.98-1.96,1.95-2.92,2.95-.17,.18-.31,.48-.32,.72-.03,1.86,0,3.71-.02,5.57,0,.51,.2,.63,.66,.62,1.24-.02,2.48-.03,3.71,0,.58,.01,.81-.21,.8-.79-.02-1.46,0-2.93,0-4.39Zm-83.8-12.96v16.42q0,1.72,1.7,1.71,.8,0,.8-.83c0-4.93,0-9.86,0-14.8,0-.57-.07-.97-.66-1.26-.62-.3-1.15-.77-1.85-1.25Zm91.27,.05c-.72,.47-1.35,.92-2.01,1.31-.36,.22-.46,.48-.46,.89,.01,4.73,0,9.45,0,14.18,0,1.71,0,1.69,1.71,1.73,.63,.02,.8-.16,.8-.79-.02-5.53-.01-11.06-.02-16.59,0-.22-.02-.43-.04-.72Z"/>
        <path class="cls-1" d="M63.55,30.5c10.04,0,20.08,0,30.12,0,2.24,0,3.91,.88,4.87,2.93,.21,.45,.39,.96,.4,1.44,.04,4.15,.04,8.31,.04,12.46,0,5.21-.03,10.41,.02,15.62,.02,2.12-.82,2.59-2.33,3.26-1.64,.72-3.3,1.4-4.95,2.11-1.98,.86-3.95,1.75-5.95,2.57-.53,.22-1.16,.26-1.74,.26-13.35,.01-26.7,0-40.04,.03-1.66,0-3.14-.41-4.61-1.08-1.86-.84-3.75-1.6-5.62-2.41-1.5-.65-3.01-1.28-4.48-1.99-.77-.37-1.26-1.03-1.27-1.95,0-.23-.02-.45-.02-.68,0-9.05,.02-18.1-.02-27.15,0-1.72,.46-3.16,1.79-4.28,.95-.79,2.04-1.14,3.28-1.14,4.88,.02,9.75,0,14.63,0,5.29,0,10.58,0,15.87,0Zm12.92,35.43c.2,.03,.28,.06,.36,.06,2.4,0,4.79,0,7.19,0,.16,0,.34,0,.49-.06,2.96-1.29,5.92-2.61,8.89-3.88,.44-.19,.58-.39,.58-.84,0-8.33-.01-16.65,0-24.98,0-.59-.19-.73-.75-.73-19.88,.01-39.76,.01-59.64,.01-.78,0-.84,.05-.82,.86,.04,1.75,.13,3.5,.14,5.26,.03,3.93,.04,7.85,.05,11.78,0,2.6,0,5.21,.03,7.81,0,.25,.11,.6,.29,.73,.35,.25,.79,.37,1.2,.54,1.87,.8,3.76,1.58,5.62,2.41,1.47,.65,2.9,1.37,4.58,1.09,.22-.04,.53-.11,.63-.27,.43-.68,.8-1.41,1.25-2.23-.79,0-1.49,.04-2.18,0-1.45-.1-2.49-1.22-2.47-2.62,.02-1.41,1.1-2.37,2.72-2.38,4.94-.02,9.88,0,14.82,0,.65,0,1.26,.09,1.82,.53,.5,.39,1.04,1.73,.93,2.2-.35,1.49-1.26,2.28-2.82,2.29-2.15,0-4.3,0-6.45,0-.19,0-.5,0-.56,.11-.46,.75-.87,1.53-1.3,2.32,.12,.03,.16,.05,.2,.05,6.32,0,12.65,0,18.97,0,.13,0,.34-.02,.39-.11,.45-.76,.87-1.54,1.33-2.39-.64,0-1.18-.02-1.71,0-1.64,.08-3.21-1.05-2.82-3.12,.17-.89,1.03-1.83,1.94-1.84,3.14-.04,6.28-.05,9.42-.05,2.23,0,4.46-.03,6.69,.06,1.59,.06,2.54,1.94,1.88,3.4-.49,1.1-1.4,1.55-2.57,1.55-2.13,0-4.26,0-6.39,.01-.24,0-.59,.07-.7,.23-.44,.68-.81,1.41-1.24,2.2Z"/>
        <path class="cls-1" d="M63.51,76.15c6.63,0,13.26-.01,19.89,0,1.25,0,2.25,.48,2.76,1.74,.51,1.29-.35,3.01-1.77,3.2-.81,.11-1.62,.2-2.43,.2-12.74,.01-25.49,.01-38.23,0-1.3,0-2.41-.43-2.93-1.78-.47-1.22,.3-2.91,1.7-3.16,.72-.13,1.46-.21,2.19-.21,6.28-.02,12.56,0,18.84,0Z"/>
        <path class="cls-1" d="M63.48,88.82c-6.61,0-13.22,0-19.83-.01-.55,0-1.14-.08-1.65-.28-1.06-.42-1.57-1.76-1.3-2.74,.3-1.12,1.11-1.9,2.45-1.97,.12,0,.25,0,.37,0,13.3,0,26.6,0,39.9,0,1.31,0,2.25,.49,2.74,1.74,.52,1.32-.5,3.11-1.94,3.23-.37,.03-.74,.04-1.11,.04-6.55,0-13.09,0-19.64,0Z"/>
        <path class="cls-1" d="M50.84,104.14c-1.63,0-3.26,.04-4.89-.01-.97-.03-1.82-.37-2.39-1.27-.94-1.48,.1-3.58,1.67-3.69,.79-.05,1.58-.17,2.38-.18,2.58-.02,5.16-.03,7.74,0,.71,0,1.42,.11,2.03,.61,.55,.44,.88,.94,.93,1.65,.09,1.11-.24,2-1.27,2.5-.44,.21-.95,.35-1.44,.37-1.59,.05-3.18,.02-4.77,.02Z"/>
        <path class="cls-1" d="M76.13,104.14c-1.57,0-3.14,.04-4.7-.02-.58-.02-1.19-.22-1.7-.48-1.41-.73-1.45-3.16-.14-4.04,.61-.41,1.26-.58,1.91-.59,3.11-.05,6.23-.03,9.35-.02,1.59,0,2.58,.79,2.94,2.3,.23,.93-.72,2.44-1.69,2.62-.68,.13-1.37,.21-2.06,.23-1.3,.03-2.6,.01-3.9,.01Z"/>
      </g>
    </g>
  </g>
</svg>